<svg width="50" height="50" viewBox="0 0 50 50" fill="none" xmlns="http://www.w3.org/2000/svg">
<path d="M36.4734 2C36.1652 2 35.8589 2.01076 35.5556 2.03131L26 47C26.5498 46.6762 49.9971 32.7351 50 15.6994C50 8.13449 43.944 2 36.4734 2Z" fill="#E0230D"/>
<path d="M35.2177 2.0313C41.24 2.5087 46 8.44576 46 15.6976C45.997 32.7135 25.9883 46.642 25.4792 46.9941C25.4723 46.998 25.4694 47 25.4694 47C25.4694 47 1 32.9326 1 15.6957C1 8.13174 7.17199 2 14.7856 2C19.0945 2 22.9417 3.96435 25.4694 7.04098C27.8129 4.18837 31.2898 2.2925 35.2177 2.0313Z" fill="#FF5440"/>
</svg>
