<svg width="47" height="47" viewBox="0 0 47 47" fill="none" xmlns="http://www.w3.org/2000/svg">
<path d="M27 8.77511L26.9629 20.2537C26.9615 20.7316 26.8317 21.2007 26.5865 21.6145C26.3413 22.0283 25.9892 22.3724 25.5653 22.6124L14.9292 28.6302C14.502 28.8718 14.0171 28.9994 13.5232 29C13.0294 29.0006 12.5441 28.8743 12.1163 28.6339L1.40504 22.616C0.976953 22.3753 0.621615 22.0289 0.374916 21.6115C0.128216 21.1942 -0.0011076 20.7209 7.14605e-06 20.2392L0.0241358 8.76154C0.0251967 8.2834 0.154788 7.81386 0.400001 7.39971C0.645214 6.98556 0.997491 6.64125 1.42174 6.40107L12.0708 0.370553C12.4983 0.128462 12.9838 0.000637592 13.4782 2.37908e-06C13.9726 -0.000632834 14.4584 0.125944 14.8865 0.366936L25.5959 6.39655C26.0241 6.63746 26.3794 6.98428 26.6259 7.40193C26.8725 7.81959 27.0015 8.29328 27 8.77511Z" fill="#BCBCBC"/>
<path d="M26 9.06691L25.9687 20.3231C25.9671 20.853 25.8303 21.3732 25.5717 21.8322C25.3131 22.2911 24.9418 22.6726 24.4947 22.9389L14.5582 28.8561C14.4003 28.9501 14.221 28.9997 14.0385 29C13.8559 29.0003 13.6764 28.9511 13.5183 28.8576C13.3602 28.764 13.229 28.6293 13.138 28.4671C13.047 28.3049 12.9994 28.121 13 27.9339L13.0313 16.6787C13.0327 16.1486 13.1695 15.6282 13.4281 15.1691C13.6867 14.71 14.0581 14.3283 14.5053 14.0619L24.4418 8.14572C25.134 7.73283 26.0027 8.24573 26 9.06691Z" fill="#D4D6D6"/>
<path d="M13 16.6966L12.9689 27.9412C12.9684 28.1273 12.9205 28.31 12.8299 28.471C12.7393 28.632 12.6092 28.7656 12.4527 28.8585C12.2961 28.9513 12.1187 29.0001 11.938 29C11.7574 28.9999 11.58 28.9508 11.4236 28.8578L1.47233 22.9376C1.02365 22.6708 0.651247 22.2868 0.392734 21.8243C0.134221 21.3617 -0.0012481 20.8371 8.6653e-06 20.3034L0.0311452 9.05878C0.0315906 8.87269 0.0795156 8.68999 0.170114 8.529C0.260713 8.36801 0.390801 8.23439 0.547333 8.14155C0.703864 8.0487 0.881338 7.99988 1.06196 8C1.24258 8.00012 1.41999 8.04916 1.57641 8.1422L11.5277 14.0624C11.9765 14.3292 12.349 14.7134 12.6075 15.1761C12.866 15.6388 13.0014 16.1627 13 16.6966Z" fill="#E0E2E2"/>
<path d="M25.4614 8.45365L15.0925 14.5747C14.622 14.8524 14.0877 14.9992 13.5434 15C12.9992 15.0008 12.4645 14.8557 11.9931 14.5794L1.54103 8.44795C1.37678 8.35163 1.24033 8.21314 1.14537 8.04636C1.05042 7.87959 1.00029 7.69039 1 7.49774C0.999717 7.30508 1.04929 7.11573 1.14376 6.94867C1.23822 6.7816 1.37426 6.6427 1.53823 6.54588L11.9072 0.42487C12.3778 0.147227 12.9121 0.000668906 13.4563 2.2843e-06C14.0006 -0.000664338 14.5353 0.144584 15.0065 0.421074L25.4586 6.55062C26.1791 6.97299 26.1809 8.02938 25.4614 8.45365Z" fill="#ECF0F1"/>
<path d="M15.0127 1.35004C15.8512 1.81857 15.8559 2.58016 15.0323 3.04326C14.1994 3.5127 12.8529 3.50637 12.0144 3.03784C11.1759 2.56931 11.1713 1.81857 12.0051 1.35004C12.8268 0.886036 14.1742 0.880609 15.0127 1.35004ZM23.3669 6.02178C24.2054 6.49121 24.2101 7.2519 23.3865 7.7159C22.5536 8.18443 21.2071 8.17901 20.3686 7.71048C19.5301 7.24104 19.5255 6.49121 20.3593 6.02178C21.1819 5.55868 22.5293 5.55325 23.3669 6.02178ZM6.55578 6.11042C7.39428 6.57985 7.39895 7.34054 6.57539 7.80364C5.74249 8.27307 4.38576 8.27307 3.54726 7.80364C2.70876 7.33511 2.71436 6.57985 3.54726 6.11042C4.37082 5.64732 5.71728 5.64189 6.55578 6.11042ZM14.91 10.7831C15.7485 11.2516 15.7531 12.0132 14.9296 12.4763C14.0967 12.9457 12.74 12.9457 11.9024 12.4763C11.0639 12.0077 11.0686 11.2516 11.9024 10.7831C12.725 10.32 14.0724 10.3136 14.91 10.7831ZM14.9613 6.07152C15.7905 6.53553 15.8045 7.29079 14.9809 7.75389C14.148 8.22333 12.7913 8.22333 11.9631 7.76022C11.1246 7.29079 11.1302 6.53553 11.9631 6.0661C12.7857 5.603 14.1228 5.60299 14.9613 6.07152ZM2.51454 9.28068C3.35211 9.74922 4.03094 10.888 4.02814 11.8097C4.02534 12.7431 3.34277 13.1085 2.50427 12.64C1.66577 12.1715 0.997208 11.0499 1.00001 10.1164C1.00281 9.19385 1.67604 8.81125 2.51454 9.28068ZM10.8407 23.4279C11.6792 23.8965 12.3571 25.0352 12.3553 25.9569C12.3525 26.8904 11.669 27.2675 10.8305 26.7981C9.99195 26.3287 9.32433 25.1971 9.32713 24.2637C9.329 23.3411 10.0022 22.9585 10.8407 23.4279ZM6.68277 16.362C7.511 16.826 8.1889 17.953 8.18609 18.8756C8.18423 19.8081 7.50073 20.1853 6.6725 19.7222C5.834 19.2528 5.16544 18.1213 5.16917 17.1869C5.17104 16.2643 5.84427 15.8935 6.68183 16.362H6.68277Z" fill="#5B5E71"/>
<path d="M19.9942 16.3241C18.8959 17.0631 17.9967 18.8614 18 20.3335C18.0042 21.8221 18.9092 22.4231 20.0067 21.6842C21.1182 20.9365 22.0041 19.1294 22 17.6399C21.9967 16.1688 21.1049 15.5755 19.9933 16.3241H19.9942Z" fill="#E74C3C"/>
<path d="M44.6178 31.424L38.6668 41.2394C38.4191 41.6481 38.0658 41.9832 37.642 42.2114C37.2183 42.4396 36.7389 42.5528 36.2516 42.5399L24.0318 42.2181C23.5409 42.2052 23.0593 42.0647 22.6355 41.8108C22.2117 41.5569 21.8608 41.1985 21.6181 40.772L15.5412 30.1C15.2982 29.6734 15.1721 29.1935 15.1757 28.7088C15.1793 28.2241 15.3125 27.7518 15.5618 27.3397L21.502 17.5188C21.7495 17.1097 22.1028 16.7741 22.5265 16.5456C22.9503 16.3171 23.4299 16.2035 23.9174 16.2163L36.1556 16.5344C36.6469 16.5472 37.1289 16.6877 37.553 16.9418C37.9771 17.1959 38.3283 17.5545 38.5709 17.9815L44.641 28.663C44.8838 29.0899 45.0095 29.5701 45.0054 30.0549C45.0014 30.5397 44.8677 31.012 44.6178 31.424Z" fill="#BCBCBC"/>
<path d="M43.5917 31.6099L37.7607 41.2371C37.486 41.6903 37.1002 42.0655 36.6418 42.3254C36.1833 42.5853 35.6681 42.7209 35.1474 42.7186L23.5792 42.6708C23.3954 42.67 23.2161 42.6203 23.0595 42.5264C22.9029 42.4326 22.7744 42.2981 22.6871 42.1365C22.5999 41.9749 22.5569 41.792 22.5625 41.6061C22.5681 41.4203 22.6222 41.2382 22.7192 41.0783L28.5509 31.4515C28.8254 30.9981 29.2111 30.6227 29.6695 30.3626C30.128 30.1024 30.6432 29.9667 31.1639 29.9688L42.7324 30.0178C43.5395 30.0211 44.0183 30.9082 43.5924 31.6103L43.5917 31.6099Z" fill="#D4D6D6"/>
<path d="M28.6577 31.1467L22.8319 40.764C22.7355 40.9232 22.6002 41.055 22.4395 41.1463C22.2789 41.2375 22.0984 41.285 21.9164 41.2839C21.7343 41.2829 21.557 41.2333 21.4023 41.1401C21.2475 41.047 21.1207 40.9136 21.0346 40.7534L15.5579 30.5562C15.3108 30.0965 15.1897 29.5755 15.2067 29.0459C15.2237 28.5164 15.3783 27.997 15.6549 27.5404L21.4807 17.9231C21.577 17.7639 21.7123 17.6321 21.873 17.5408C22.0337 17.4496 22.2141 17.4021 22.3962 17.4032C22.5782 17.4042 22.7555 17.4538 22.9103 17.5469C23.065 17.6401 23.1918 17.7735 23.2779 17.9337L28.7546 28.1309C29.0017 28.5906 29.1229 29.1116 29.1058 29.6412C29.0888 30.1707 28.9342 30.6901 28.6577 31.1467Z" fill="#E0E2E2"/>
<path d="M43.6077 30.8408L31.5637 30.7451C31.017 30.7409 30.4831 30.5914 30.016 30.3117C29.549 30.032 29.1653 29.6321 28.9038 29.1524L23.1065 18.5169C23.0154 18.3498 22.9698 18.1608 22.9744 17.969C22.9791 17.7772 23.0337 17.5893 23.1328 17.4241C23.2319 17.2589 23.3721 17.1222 23.5392 17.0277C23.7063 16.9333 23.8946 16.8843 24.0851 16.8858L36.1298 16.982C36.6764 16.9863 37.2101 17.1358 37.677 17.4154C38.1439 17.695 38.5275 18.0947 38.789 18.5742L44.5871 29.2102C44.986 29.9427 44.4432 30.8479 43.6077 30.8408Z" fill="#ECF0F1"/>
<path d="M37.6531 19.4102C38.1196 20.2372 37.7307 20.892 36.7972 20.8713C35.8521 20.8501 34.717 20.1617 34.2504 19.3348C33.7839 18.5079 34.168 17.8628 35.113 17.884C36.0471 17.9039 37.1878 18.583 37.6531 19.4102ZM42.3 27.6526C42.766 28.4803 42.3768 29.1339 41.442 29.1135C40.4977 29.0927 39.3626 28.4043 38.8961 27.5774C38.43 26.7497 38.8136 26.1054 39.7591 26.1259C40.6927 26.1466 41.8335 26.8257 42.3 27.6526ZM28.0557 19.1972C28.5222 20.0241 28.1333 20.6789 27.1998 20.6582C26.2534 20.6373 25.1076 19.9488 24.6424 19.1216C24.1758 18.2947 24.5698 17.6492 25.5156 17.6709C26.4492 17.6916 27.5899 18.3707 28.0557 19.1972ZM32.7021 27.4403C33.1686 28.2672 32.779 28.9216 31.8446 28.9004C30.9003 28.8796 29.7545 28.1911 29.288 27.3642C28.8215 26.5373 29.2162 25.8923 30.1613 25.9136C31.0953 25.9335 32.236 26.6126 32.7021 27.4403ZM39.9992 23.5973C40.4649 24.4237 40.076 25.0785 39.1417 25.0574C38.1974 25.0366 37.0623 24.3482 36.5957 23.5213C36.1297 22.6936 36.5133 22.0493 37.4588 22.0698C38.3924 22.0905 39.5327 22.7703 39.9992 23.5973ZM30.4018 23.3842C30.8675 24.2106 30.4786 24.8655 29.5443 24.8443C28.6 24.8235 27.4542 24.135 26.9877 23.3081C26.5211 22.4812 26.9159 21.8362 27.8609 21.8575C28.795 21.8774 29.9357 22.5565 30.4018 23.3842ZM23.0076 19.8625C23.4741 20.6894 23.4598 22.0083 22.9816 22.7973C22.4978 23.5956 21.7329 23.5623 21.2664 22.7354C20.7999 21.9084 20.8142 20.6075 21.2983 19.8105C21.7757 19.021 22.5416 19.0348 23.0068 19.862L23.0076 19.8625ZM22.7431 36.2082C23.2096 37.0351 23.1961 38.3545 22.7179 39.1435C22.2341 39.9418 21.4631 39.9185 20.9971 39.0909C20.531 38.2632 20.55 36.9545 21.0338 36.1562C21.5119 35.3672 22.2771 35.3806 22.7431 36.2082ZM22.8757 28.0446C23.3359 28.8624 23.328 30.1724 22.8494 30.9602C22.3665 31.7589 21.5955 31.7357 21.1348 30.9187C20.668 30.0905 20.6874 28.781 21.1712 27.9827C21.6494 27.1937 22.4092 27.2177 22.8757 28.0446ZM41.4985 30.9729C40.5487 30.9489 39.3885 31.5792 38.9151 32.3711C38.436 33.1722 38.824 33.8317 39.7738 33.8557C40.7236 33.8798 41.8672 33.2574 42.3457 32.4571C42.8192 31.6652 42.448 30.9958 41.4985 30.9729ZM27.1695 38.8679C26.2197 38.8438 25.0603 39.4746 24.5869 40.2665C24.107 41.0671 24.4902 41.7363 25.44 41.7604C26.389 41.7841 27.5377 41.1531 28.0167 40.352C28.491 39.5606 28.1197 38.8912 27.1695 38.8679ZM31.8969 31.0148C30.9471 30.9907 29.7872 31.6223 29.3143 32.4134C28.8344 33.2141 29.2227 33.8748 30.173 33.8981C31.122 33.9217 32.2651 33.3001 32.7441 32.4989C33.2184 31.7075 32.8471 31.0381 31.8969 31.0148ZM37.2616 38.8728C36.3126 38.8491 35.1528 39.4808 34.6798 40.2718C34.1999 41.0725 34.5827 41.7425 35.5321 41.7653C36.4816 41.7882 37.6306 41.1585 38.1096 40.3573C38.5839 39.566 38.2119 38.8961 37.2616 38.8728Z" fill="#5B5E71"/>
</svg>
